<svg xmlns="http://www.w3.org/2000/svg" width="256" height="256"><path fill="#1976D2" fill-opacity=".016" fill-rule="evenodd" d="M0 128.004v128.004l128.25-.254 128.25-.254.254-127.75L257.008 0H0zm.485.496c0 70.4.119 99.053.265 63.672.146-35.38.146-92.98 0-128C.604 29.153.485 58.1.485 128.5"/><path fill="#1976D2" fill-opacity=".235" fill-rule="evenodd" d="M125.607.827c-.281.455-6.495 4.339-13.809 8.631C104.484 13.751 96.925 18.28 95 19.524c-1.925 1.243-7.213 4.373-11.75 6.956-4.537 2.582-8.25 5.113-8.25 5.623 0 .51 1.518 3.283 3.374 6.162S84.886 48.675 88.719 55C103.058 78.656 110.378 90.673 114 96.5c3.494 5.621 6.511 10.575 24.97 41 4.005 6.6 8.713 14.25 10.462 17 1.749 2.75 6.08 9.836 9.624 15.747 3.544 5.91 7.569 12.547 8.944 14.747 1.375 2.2 6.234 10.189 10.797 17.753 11.42 18.928 10.629 18.017 13.965 16.084 1.506-.872 12.188-6.898 23.738-13.39 11.55-6.493 21.333-12.286 21.739-12.873.406-.587.631-29.613.5-64.502l-.239-63.434-4.5-2.738c-2.475-1.505-6.075-3.608-8-4.674-3.563-1.971-19.821-11.386-53-30.691-10.175-5.92-23.675-13.701-30-17.292-6.325-3.59-12.21-7.137-13.079-7.882-1.787-1.534-3.558-1.751-4.314-.528M49.5 44.936c-9.956 6.253-27.932 16.848-30.804 18.157L16 64.321V192.652l15.75 9.043c8.663 4.974 24.525 14.122 35.25 20.33a16922.473 16922.473 0 0 0 35.323 20.381c8.703 5.002 17.478 10.087 19.5 11.301 5.732 3.439 5.906 3.398 19.677-4.716 1.65-.973 9.075-5.236 16.5-9.474 7.425-4.239 13.663-7.865 13.863-8.058.199-.193-2.501-5.089-6-10.879l-8.363-13.841c-1.1-1.821-2.717-4.308-3.594-5.525l-1.594-2.213-4.069 2.25c-2.238 1.237-7.785 4.396-12.326 7.021l-8.257 4.772-8.58-4.882c-4.719-2.686-16.905-9.725-27.08-15.643-10.175-5.918-22.888-13.264-28.25-16.324L54 170.63V87.028l3.75-2.4c2.063-1.32 7.013-4.271 11-6.558s7.232-4.701 7.211-5.364c-.021-.663-1.484-3.56-3.25-6.438A2327.386 2327.386 0 0 1 63.5 51.036c-3.3-5.5-6.45-9.97-7-9.934-.55.036-3.7 1.761-7 3.834m74.25 1.636c-3.246 1.761-3.348 2.383-.91 5.543 1.012 1.312 3.504 5.31 5.538 8.885 2.033 3.575 6.189 10.55 9.236 15.5 3.046 4.95 7.108 11.7 9.026 15 1.918 3.3 4.802 8.025 6.408 10.5 1.606 2.475 3.242 5.175 3.637 6 .394.825 2.945 5.1 5.669 9.5 2.723 4.4 6.402 10.475 8.175 13.5 1.773 3.025 6.925 11.575 11.45 19 4.524 7.425 8.967 14.787 9.873 16.36 3.506 6.084 4.773 7.196 6.533 5.735 1.439-1.194 1.615-5.886 1.615-43.149v-41.81l-2.75-1.911c-2.358-1.638-13.522-8.177-27.031-15.832-2.046-1.159-8.894-5.159-15.219-8.89-21.482-12.669-26.499-15.488-27.5-15.456-.55.018-2.237.704-3.75 1.525"/><path fill="#1976D2" fill-opacity=".245" fill-rule="evenodd" d="M126.5 1.18c-.55.506-6.175 3.969-12.5 7.695a71295.638 71295.638 0 0 1-24.75 14.574c-7.287 4.288-13.242 8.305-13.233 8.924.01.62 2.909 5.852 6.444 11.627 3.534 5.775 9.311 15.225 12.837 21 3.527 5.775 10.136 16.575 14.687 24a5412.645 5412.645 0 0 1 14.019 23 3333.106 3333.106 0 0 0 9.734 16c5.741 9.35 26.08 42.694 29.278 48 1.492 2.475 6.444 10.575 11.005 18 4.561 7.425 9.818 16.088 11.683 19.25 1.866 3.163 4.105 5.75 4.976 5.75.871 0 3.212-1.009 5.202-2.243 1.99-1.234 4.847-2.921 6.349-3.75 1.501-.829 10.164-5.752 19.25-10.94L238 192.633v-63.694c0-49.747-.274-63.917-1.25-64.71-.687-.559-2.825-1.909-4.75-3.001-1.925-1.091-10.7-6.158-19.5-11.259-28.97-16.793-48.753-28.199-66.5-38.34-9.625-5.5-17.725-10.308-18-10.684-.275-.376-.95-.27-1.5.235M43 49.43a5677.926 5677.926 0 0 0-19.727 11.738L16.047 65.5l.226 63.393.227 63.393L30 200.04c13.452 7.727 27.875 16.075 63 36.464 10.175 5.906 22.069 12.782 26.432 15.279l7.932 4.541 5.068-2.662c2.787-1.464 10.243-5.727 16.568-9.473 6.325-3.746 13.862-8.134 16.749-9.75 2.887-1.617 5.249-3.46 5.25-4.096.001-.636-1.911-4.124-4.249-7.75-2.338-3.626-6.453-10.193-9.146-14.593-2.693-4.4-5.401-8-6.018-8s-2.777 1.125-4.801 2.5c-2.023 1.375-3.885 2.5-4.137 2.5-.252 0-3.714 2.007-7.693 4.46l-7.234 4.461-4.611-2.609c-2.535-1.434-5.735-3.329-7.11-4.21-3.215-2.06-30.535-17.837-48.211-27.842l-13.711-7.76-.039-42.73L54 86.041l3.75-2.061c2.063-1.133 6.675-3.833 10.25-5.999 3.575-2.167 6.897-4.081 7.383-4.255.816-.291-4.544-9.991-11.453-20.726-1.592-2.475-3.662-5.962-4.598-7.75-.936-1.788-2.182-3.245-2.767-3.238-.586.007-6.69 3.345-13.565 7.418m80.711-3.589c-1.749 1.041-2.63 2.284-2.363 3.334.234.921 5.989 10.942 12.789 22.267s14.432 24.072 16.961 28.325c6.579 11.064 29.729 49.451 30.898 51.233.541.825 1.898 3.075 3.017 5 1.119 1.925 3.159 5.3 4.532 7.5 1.374 2.2 3.247 5.463 4.162 7.25 1.957 3.823 2.231 3.888 5.115 1.201l2.2-2.049-.261-41.59-.261-41.59-6.5-3.964c-6.026-3.674-20.513-12.179-29.201-17.143a1682.897 1682.897 0 0 1-27.073-15.791c-5.375-3.203-10.1-5.783-10.5-5.733-.399.051-1.981.838-3.515 1.75"/><path fill="#1976D2" fill-opacity=".117" fill-rule="evenodd" d="M123 4c-1.375 1.076-2.798 1.966-3.162 1.978-.364.012-5.764 3.098-12 6.859a2145.856 2145.856 0 0 1-21.027 12.496c-5.329 3.114-9.946 6.076-10.259 6.583-.565.915 5.259 11.278 6.698 11.917.412.184.75.756.75 1.272 0 .951 1.049 2.701 9.356 15.613C95.91 64.687 98 68.13 98 68.367c0 .238 1.763 3.29 3.918 6.783 2.155 3.492 6.742 11.075 10.193 16.85 3.451 5.775 6.564 10.725 6.918 11 .354.275 2.317 3.425 4.362 7s7.049 11.9 11.119 18.5c4.07 6.6 9.012 14.7 10.981 18 1.969 3.3 6.92 11.4 11 18 4.081 6.6 8.499 13.8 9.816 16 1.318 2.2 6.132 10.075 10.698 17.5 4.567 7.425 9.246 15.184 10.399 17.242 1.153 2.058 2.418 3.745 2.812 3.75.628.007 10.586-5.544 25.551-14.244 2.603-1.513 5.757-3.194 7.009-3.735 1.253-.541 2.828-1.47 3.5-2.064.673-.595 3.573-2.403 6.445-4.018l5.221-2.938.02-63.422.021-63.422-14.242-8.225A8817.851 8817.851 0 0 0 205.829 46.6c-6.574-3.761-31.285-18.06-32.994-19.094-.916-.553-6.991-4.061-13.5-7.794-6.509-3.733-13.481-7.783-15.492-9C127.908 1.073 127.082.807 123 4M49 46.534c-4.125 2.438-13.226 7.703-20.224 11.699L16.052 65.5l-.026 63.04L16 191.579l7.068 3.961c3.888 2.178 8.981 5.085 11.318 6.46 2.338 1.375 9.17 5.323 15.182 8.774 6.013 3.451 12.572 7.276 14.577 8.5 3.442 2.102 15.437 9.034 48.808 28.205 8.451 4.855 15.095 8.065 16 7.729.851-.315 2.672-1.343 4.047-2.284 2.672-1.829 31.992-18.509 35.742-20.333 2.346-1.141 2.946-3.048 1.282-4.076-.536-.332-2.579-3.396-4.54-6.809a493.656 493.656 0 0 0-7.524-12.556c-2.178-3.493-3.96-6.729-3.96-7.191 0-2.253-2.496-1.52-10.635 3.121-4.876 2.781-10.32 5.963-12.098 7.07-2.921 1.82-3.499 1.876-6 .58-2.469-1.28-24.16-13.753-32.038-18.423-1.676-.994-8.601-4.987-15.389-8.873l-14.84-8.5c-1.375-.789-2.725-1.709-3-2.044-.275-.336-1.962-1.36-3.75-2.276L53 170.949V86.052l7.574-4.276c4.166-2.352 9.116-5.143 11-6.202C73.458 74.515 75 73.12 75 72.474c0-.646-1.246-2.929-2.77-5.074-1.523-2.145-3.353-5.025-4.066-6.4-2.622-5.053-11.125-19.065-11.5-18.95-.09.028-3.539 2.046-7.664 4.484m74.25-.886c-1.787.881-3.25 1.984-3.25 2.451 0 .467 3.359 6.373 7.463 13.125 4.105 6.752 9.301 15.426 11.546 19.276 2.246 3.85 5.19 8.8 6.542 11 1.353 2.2 3.361 5.575 4.461 7.5 1.1 1.925 5.823 9.75 10.494 17.389 4.672 7.64 8.494 14.24 8.494 14.667 0 .428.338.927.75 1.111.768.341 7.25 10.577 7.25 11.448 0 .265 1.8 3.192 4 6.504 2.2 3.312 4 6.183 4 6.378 0 .393 9.953 16.751 10.6 17.421.222.23 1.527-.183 2.902-.919l2.498-1.337v-85.61l-7.25-4.053c-3.988-2.228-8.9-5.052-10.917-6.275-5.927-3.595-20.045-11.849-23.833-13.936a284.975 284.975 0 0 1-7.152-4.108c-2.008-1.199-6.733-3.936-10.5-6.082-3.766-2.146-8.042-4.734-9.502-5.75-3.219-2.241-4.401-2.268-8.596-.2"/></svg>